G75*
%MOIN*%
%OFA0B0*%
%FSLAX25Y25*%
%IPPOS*%
%LPD*%
%AMOC8*
5,1,8,0,0,1.08239X$1,22.5*
%
%ADD10C,0.06000*%
%ADD11C,0.08200*%
%ADD12C,0.04343*%
%ADD13C,0.06400*%
%ADD14OC8,0.07800*%
%ADD15C,0.06400*%
%ADD16C,0.03778*%
D10*
X0033700Y0301300D02*
X0038900Y0301300D01*
X0038900Y0311300D02*
X0033700Y0311300D01*
X0033700Y0321300D02*
X0038900Y0321300D01*
X0038900Y0331300D02*
X0033700Y0331300D01*
X0033700Y0341300D02*
X0038900Y0341300D01*
X0038900Y0351300D02*
X0033700Y0351300D01*
X0033700Y0361300D02*
X0038900Y0361300D01*
X0038900Y0371300D02*
X0033700Y0371300D01*
X0063700Y0371300D02*
X0068900Y0371300D01*
X0068900Y0361300D02*
X0063700Y0361300D01*
X0063700Y0351300D02*
X0068900Y0351300D01*
X0068900Y0341300D02*
X0063700Y0341300D01*
X0063700Y0331300D02*
X0068900Y0331300D01*
X0068900Y0321300D02*
X0063700Y0321300D01*
X0063700Y0311300D02*
X0068900Y0311300D01*
X0068900Y0301300D02*
X0063700Y0301300D01*
X0098700Y0301300D02*
X0103900Y0301300D01*
X0103900Y0311300D02*
X0098700Y0311300D01*
X0098700Y0321300D02*
X0103900Y0321300D01*
X0103900Y0331300D02*
X0098700Y0331300D01*
X0098700Y0341300D02*
X0103900Y0341300D01*
X0103900Y0351300D02*
X0098700Y0351300D01*
X0098700Y0361300D02*
X0103900Y0361300D01*
X0103900Y0371300D02*
X0098700Y0371300D01*
X0128700Y0371300D02*
X0133900Y0371300D01*
X0133900Y0361300D02*
X0128700Y0361300D01*
X0128700Y0351300D02*
X0133900Y0351300D01*
X0133900Y0341300D02*
X0128700Y0341300D01*
X0128700Y0331300D02*
X0133900Y0331300D01*
X0133900Y0321300D02*
X0128700Y0321300D01*
X0128700Y0311300D02*
X0133900Y0311300D01*
X0133900Y0301300D02*
X0128700Y0301300D01*
X0163700Y0301300D02*
X0168900Y0301300D01*
X0168900Y0311300D02*
X0163700Y0311300D01*
X0163700Y0321300D02*
X0168900Y0321300D01*
X0168900Y0331300D02*
X0163700Y0331300D01*
X0163700Y0341300D02*
X0168900Y0341300D01*
X0168900Y0351300D02*
X0163700Y0351300D01*
X0163700Y0361300D02*
X0168900Y0361300D01*
X0168900Y0371300D02*
X0163700Y0371300D01*
X0193700Y0371300D02*
X0198900Y0371300D01*
X0198900Y0361300D02*
X0193700Y0361300D01*
X0193700Y0351300D02*
X0198900Y0351300D01*
X0198900Y0341300D02*
X0193700Y0341300D01*
X0193700Y0331300D02*
X0198900Y0331300D01*
X0198900Y0321300D02*
X0193700Y0321300D01*
X0193700Y0311300D02*
X0198900Y0311300D01*
X0198900Y0301300D02*
X0193700Y0301300D01*
D11*
X0041300Y0276300D03*
X0041300Y0266300D03*
X0041300Y0256300D03*
X0031300Y0256300D03*
X0031300Y0266300D03*
X0031300Y0276300D03*
D12*
X0157639Y0061300D03*
X0174961Y0061300D03*
D13*
X0171300Y0088500D02*
X0171300Y0094100D01*
X0161300Y0094100D02*
X0161300Y0088500D01*
X0151300Y0088500D02*
X0151300Y0094100D01*
X0181300Y0094100D02*
X0181300Y0088500D01*
X0034100Y0111300D02*
X0028500Y0111300D01*
X0028500Y0121300D02*
X0034100Y0121300D01*
X0034100Y0131300D02*
X0028500Y0131300D01*
X0028500Y0141300D02*
X0034100Y0141300D01*
X0036300Y0398500D02*
X0036300Y0404100D01*
X0046300Y0404100D02*
X0046300Y0398500D01*
X0056300Y0398500D02*
X0056300Y0404100D01*
X0066300Y0404100D02*
X0066300Y0398500D01*
X0101300Y0398500D02*
X0101300Y0404100D01*
X0111300Y0404100D02*
X0111300Y0398500D01*
X0121300Y0398500D02*
X0121300Y0404100D01*
X0131300Y0404100D02*
X0131300Y0398500D01*
X0166300Y0398500D02*
X0166300Y0404100D01*
X0176300Y0404100D02*
X0176300Y0398500D01*
X0186300Y0398500D02*
X0186300Y0404100D01*
X0196300Y0404100D02*
X0196300Y0398500D01*
X0231300Y0398500D02*
X0231300Y0404100D01*
X0241300Y0404100D02*
X0241300Y0398500D01*
X0251300Y0398500D02*
X0251300Y0404100D01*
X0261300Y0404100D02*
X0261300Y0398500D01*
D14*
X0031300Y0231300D03*
X0031300Y0221300D03*
X0031300Y0211300D03*
X0031300Y0201300D03*
X0031300Y0191300D03*
X0031300Y0181300D03*
X0031300Y0171300D03*
X0031300Y0161300D03*
D15*
X0112363Y0061300D03*
X0120237Y0061300D03*
D16*
X0036300Y0076300D03*
X0021789Y0091300D03*
X0051300Y0078800D03*
X0053830Y0081330D03*
X0056360Y0083860D03*
X0056300Y0131300D03*
X0053800Y0136300D03*
X0051300Y0141300D03*
X0048800Y0153800D03*
X0073800Y0161300D03*
X0083800Y0161300D03*
X0141300Y0148800D03*
X0153800Y0118800D03*
X0151300Y0101300D03*
X0166300Y0153800D03*
X0166300Y0183800D03*
X0176300Y0191300D03*
X0181300Y0193800D03*
X0168800Y0203800D03*
X0163800Y0208800D03*
X0158800Y0201300D03*
X0151300Y0211300D03*
X0156739Y0234239D03*
X0158800Y0241300D03*
X0153800Y0243800D03*
X0153800Y0256300D03*
X0148800Y0256300D03*
X0138800Y0248800D03*
X0133800Y0243800D03*
X0128800Y0241300D03*
X0126300Y0246300D03*
X0108800Y0278800D03*
X0111330Y0281330D03*
X0111300Y0284908D03*
X0111300Y0288800D03*
X0121300Y0311300D03*
X0101300Y0261300D03*
X0058800Y0281300D03*
X0056270Y0283830D03*
X0053740Y0286360D03*
X0053800Y0289938D03*
X0166300Y0233800D03*
X0181300Y0233800D03*
X0181300Y0226300D03*
X0181300Y0222722D03*
X0168800Y0263800D03*
X0168800Y0268800D03*
X0178800Y0283800D03*
X0181300Y0291300D03*
X0216300Y0206300D03*
X0226300Y0146300D03*
X0218800Y0143800D03*
X0211300Y0131300D03*
X0201300Y0116300D03*
X0241300Y0096300D03*
X0248800Y0123800D03*
X0248800Y0127378D03*
X0266300Y0161300D03*
X0261300Y0238800D03*
X0266300Y0286300D03*
X0241300Y0288800D03*
X0238800Y0368800D03*
X0253800Y0056300D03*
X0198800Y0043800D03*
M02*
