%
M48
M72
T01C0.01378
T02C0.03150
T03C0.03200
T04C0.03543
T05C0.03600
T06C0.04000
%
T01
X36300Y76300
X21789Y91300
X51300Y78800
X53830Y81330
X56360Y83860
X56300Y131300
X53800Y136300
X51300Y141300
X48800Y153800
X73800Y161300
X83800Y161300
X141300Y148800
X153800Y118800
X151300Y101300
X166300Y153800
X166300Y183800
X176300Y191300
X181300Y193800
X168800Y203800
X163800Y208800
X158800Y201300
X151300Y211300
X156739Y234239
X158800Y241300
X153800Y243800
X153800Y256300
X148800Y256300
X138800Y248800
X133800Y243800
X128800Y241300
X126300Y246300
X108800Y278800
X111330Y281330
X111300Y284908
X111300Y288800
X121300Y311300
X101300Y261300
X58800Y281300
X56270Y283830
X53740Y286360
X53800Y289938
X166300Y233800
X181300Y233800
X181300Y226300
X181300Y222722
X168800Y263800
X168800Y268800
X178800Y283800
X181300Y291300
X216300Y206300
X226300Y146300
X218800Y143800
X211300Y131300
X201300Y116300
X241300Y96300
X248800Y123800
X248800Y127378
X266300Y161300
X261300Y238800
X266300Y286300
X241300Y288800
X238800Y368800
X253800Y56300
X198800Y43800
T02
X120237Y61300
X112363Y61300
T03
X101300Y301300
X101300Y311300
X101300Y321300
X101300Y331300
X101300Y341300
X101300Y351300
X101300Y361300
X101300Y371300
X131300Y371300
X131300Y361300
X131300Y351300
X131300Y341300
X131300Y331300
X131300Y321300
X131300Y311300
X131300Y301300
X166300Y301300
X166300Y311300
X166300Y321300
X166300Y331300
X166300Y341300
X166300Y351300
X166300Y361300
X166300Y371300
X196300Y371300
X196300Y361300
X196300Y351300
X196300Y341300
X196300Y331300
X196300Y321300
X196300Y311300
X196300Y301300
X66300Y301300
X66300Y311300
X66300Y321300
X66300Y331300
X66300Y341300
X66300Y351300
X66300Y361300
X66300Y371300
X36300Y371300
X36300Y361300
X36300Y351300
X36300Y341300
X36300Y331300
X36300Y321300
X36300Y311300
X36300Y301300
T04
X157639Y61300
X174961Y61300
T05
X171300Y91300
X161300Y91300
X151300Y91300
X181300Y91300
X31300Y111300
X31300Y121300
X31300Y131300
X31300Y141300
X36300Y401300
X46300Y401300
X56300Y401300
X66300Y401300
X101300Y401300
X111300Y401300
X121300Y401300
X131300Y401300
X166300Y401300
X176300Y401300
X186300Y401300
X196300Y401300
X231300Y401300
X241300Y401300
X251300Y401300
X261300Y401300
T06
X41300Y276300
X41300Y266300
X41300Y256300
X31300Y256300
X31300Y266300
X31300Y276300
X31300Y231300
X31300Y221300
X31300Y211300
X31300Y201300
X31300Y191300
X31300Y181300
X31300Y171300
X31300Y161300
M30
